<svg xmlns="http://www.w3.org/2000/svg" width="512" height="512" viewBox="0 0 512 512">
  <!-- Background -->
  <rect width="512" height="512" rx="100" fill="#FFB3C6"/>

  <!-- Main heart - centered and larger -->
  <path d="M256,400 C256,400 120,280 120,190 C120,140 160,100 210,100 C240,100 256,130 256,130 C256,130 272,100 302,100 C352,100 392,140 392,190 C392,280 256,400 256,400 Z" fill="#FF6B9D"/>

  <!-- Small heart top left -->
  <path d="M155,175 C155,175 125,155 125,130 C125,115 140,100 160,100 C172,100 178,110 178,110 C178,110 184,100 196,100 C216,100 231,115 231,130 C231,155 201,175 178,175 Z" fill="white" opacity="0.9"/>

  <!-- Small heart top right -->
  <path d="M340,195 C340,195 310,175 310,150 C310,135 325,120 345,120 C357,120 363,130 363,130 C363,130 369,120 381,120 C401,120 416,135 416,150 C416,175 386,195 363,195 Z" fill="white" opacity="0.9"/>
</svg>
